<mxfile host="app.diagrams.net" agent="Mozilla/5.0 (Windows NT 10.0; Win64; x64) AppleWebKit/537.36 (KHTML, like Gecko) Chrome/130.0.0.0 Safari/537.36" version="24.7.17">
  <diagram name="Page-1" id="glQvt8saDaPv-tLMFjgM">
    <mxGraphModel dx="694" dy="670" grid="1" gridSize="10" guides="1" tooltips="1" connect="1" arrows="1" fold="1" page="1" pageScale="1" pageWidth="850" pageHeight="1100" math="0" shadow="0">
      <root>
        <mxCell id="0" />
        <mxCell id="1" parent="0" />
        <mxCell id="8mjYLHvnkvFiz-2dnYs0-11" style="edgeStyle=orthogonalEdgeStyle;rounded=0;orthogonalLoop=1;jettySize=auto;html=1;exitX=0.5;exitY=1;exitDx=0;exitDy=0;entryX=0.5;entryY=0;entryDx=0;entryDy=0;" edge="1" parent="1" source="8mjYLHvnkvFiz-2dnYs0-1" target="8mjYLHvnkvFiz-2dnYs0-5">
          <mxGeometry relative="1" as="geometry" />
        </mxCell>
        <mxCell id="8mjYLHvnkvFiz-2dnYs0-1" value="Mulai" style="rounded=1;whiteSpace=wrap;html=1;" vertex="1" parent="1">
          <mxGeometry x="320" y="130" width="120" height="60" as="geometry" />
        </mxCell>
        <mxCell id="8mjYLHvnkvFiz-2dnYs0-26" style="edgeStyle=orthogonalEdgeStyle;rounded=0;orthogonalLoop=1;jettySize=auto;html=1;exitX=0;exitY=0.5;exitDx=0;exitDy=0;entryX=0.5;entryY=0;entryDx=0;entryDy=0;" edge="1" parent="1" source="8mjYLHvnkvFiz-2dnYs0-4">
          <mxGeometry relative="1" as="geometry">
            <mxPoint x="120" y="520" as="targetPoint" />
          </mxGeometry>
        </mxCell>
        <mxCell id="8mjYLHvnkvFiz-2dnYs0-27" style="edgeStyle=orthogonalEdgeStyle;rounded=0;orthogonalLoop=1;jettySize=auto;html=1;exitX=0;exitY=0.5;exitDx=0;exitDy=0;entryX=0.5;entryY=0;entryDx=0;entryDy=0;" edge="1" parent="1">
          <mxGeometry relative="1" as="geometry">
            <mxPoint x="330" y="450" as="sourcePoint" />
            <mxPoint x="300" y="520" as="targetPoint" />
            <Array as="points">
              <mxPoint x="300" y="450" />
            </Array>
          </mxGeometry>
        </mxCell>
        <mxCell id="8mjYLHvnkvFiz-2dnYs0-28" style="edgeStyle=orthogonalEdgeStyle;rounded=0;orthogonalLoop=1;jettySize=auto;html=1;exitX=1;exitY=0.5;exitDx=0;exitDy=0;entryX=0.5;entryY=0;entryDx=0;entryDy=0;" edge="1" parent="1" source="8mjYLHvnkvFiz-2dnYs0-4">
          <mxGeometry relative="1" as="geometry">
            <mxPoint x="465" y="520" as="targetPoint" />
            <Array as="points">
              <mxPoint x="465" y="450" />
            </Array>
          </mxGeometry>
        </mxCell>
        <mxCell id="8mjYLHvnkvFiz-2dnYs0-29" style="edgeStyle=orthogonalEdgeStyle;rounded=0;orthogonalLoop=1;jettySize=auto;html=1;exitX=1;exitY=0.5;exitDx=0;exitDy=0;entryX=0.5;entryY=0;entryDx=0;entryDy=0;" edge="1" parent="1" source="8mjYLHvnkvFiz-2dnYs0-4">
          <mxGeometry relative="1" as="geometry">
            <mxPoint x="620" y="520" as="targetPoint" />
          </mxGeometry>
        </mxCell>
        <mxCell id="8mjYLHvnkvFiz-2dnYs0-4" value="Pilihan" style="shape=parallelogram;perimeter=parallelogramPerimeter;whiteSpace=wrap;html=1;fixedSize=1;" vertex="1" parent="1">
          <mxGeometry x="320" y="420" width="120" height="60" as="geometry" />
        </mxCell>
        <mxCell id="8mjYLHvnkvFiz-2dnYs0-24" style="edgeStyle=orthogonalEdgeStyle;rounded=0;orthogonalLoop=1;jettySize=auto;html=1;exitX=0.5;exitY=1;exitDx=0;exitDy=0;" edge="1" parent="1" source="8mjYLHvnkvFiz-2dnYs0-5" target="8mjYLHvnkvFiz-2dnYs0-30">
          <mxGeometry relative="1" as="geometry">
            <mxPoint x="380" y="310.0000000000001" as="targetPoint" />
          </mxGeometry>
        </mxCell>
        <mxCell id="8mjYLHvnkvFiz-2dnYs0-5" value="Tampilkan Menu" style="rounded=0;whiteSpace=wrap;html=1;" vertex="1" parent="1">
          <mxGeometry x="320" y="220" width="120" height="60" as="geometry" />
        </mxCell>
        <mxCell id="8mjYLHvnkvFiz-2dnYs0-25" style="edgeStyle=orthogonalEdgeStyle;rounded=0;orthogonalLoop=1;jettySize=auto;html=1;exitX=0.5;exitY=1;exitDx=0;exitDy=0;" edge="1" parent="1" target="8mjYLHvnkvFiz-2dnYs0-4">
          <mxGeometry relative="1" as="geometry">
            <mxPoint x="380" y="390" as="sourcePoint" />
          </mxGeometry>
        </mxCell>
        <mxCell id="8mjYLHvnkvFiz-2dnYs0-31" style="edgeStyle=orthogonalEdgeStyle;rounded=0;orthogonalLoop=1;jettySize=auto;html=1;exitX=0.5;exitY=1;exitDx=0;exitDy=0;" edge="1" parent="1" source="8mjYLHvnkvFiz-2dnYs0-30" target="8mjYLHvnkvFiz-2dnYs0-4">
          <mxGeometry relative="1" as="geometry" />
        </mxCell>
        <mxCell id="8mjYLHvnkvFiz-2dnYs0-30" value="Pilih Opsi Menu" style="shape=parallelogram;perimeter=parallelogramPerimeter;whiteSpace=wrap;html=1;fixedSize=1;" vertex="1" parent="1">
          <mxGeometry x="320" y="320" width="120" height="60" as="geometry" />
        </mxCell>
        <mxCell id="8mjYLHvnkvFiz-2dnYs0-61" style="edgeStyle=orthogonalEdgeStyle;rounded=0;orthogonalLoop=1;jettySize=auto;html=1;exitX=0.5;exitY=1;exitDx=0;exitDy=0;" edge="1" parent="1" source="8mjYLHvnkvFiz-2dnYs0-36" target="8mjYLHvnkvFiz-2dnYs0-59">
          <mxGeometry relative="1" as="geometry">
            <Array as="points">
              <mxPoint x="620" y="1030" />
            </Array>
          </mxGeometry>
        </mxCell>
        <mxCell id="8mjYLHvnkvFiz-2dnYs0-36" value="Keluar" style="rounded=0;whiteSpace=wrap;html=1;" vertex="1" parent="1">
          <mxGeometry x="560" y="520" width="120" height="60" as="geometry" />
        </mxCell>
        <mxCell id="8mjYLHvnkvFiz-2dnYs0-51" style="edgeStyle=orthogonalEdgeStyle;rounded=0;orthogonalLoop=1;jettySize=auto;html=1;exitX=0.5;exitY=1;exitDx=0;exitDy=0;" edge="1" parent="1" source="8mjYLHvnkvFiz-2dnYs0-37" target="8mjYLHvnkvFiz-2dnYs0-42">
          <mxGeometry relative="1" as="geometry" />
        </mxCell>
        <mxCell id="8mjYLHvnkvFiz-2dnYs0-37" value="Hapus Buku" style="rounded=0;whiteSpace=wrap;html=1;" vertex="1" parent="1">
          <mxGeometry x="410" y="520" width="120" height="60" as="geometry" />
        </mxCell>
        <mxCell id="8mjYLHvnkvFiz-2dnYs0-49" style="edgeStyle=orthogonalEdgeStyle;rounded=0;orthogonalLoop=1;jettySize=auto;html=1;exitX=0.5;exitY=1;exitDx=0;exitDy=0;" edge="1" parent="1" source="8mjYLHvnkvFiz-2dnYs0-38" target="8mjYLHvnkvFiz-2dnYs0-41">
          <mxGeometry relative="1" as="geometry" />
        </mxCell>
        <mxCell id="8mjYLHvnkvFiz-2dnYs0-38" value="Lihat Buku" style="rounded=0;whiteSpace=wrap;html=1;" vertex="1" parent="1">
          <mxGeometry x="240" y="520" width="120" height="60" as="geometry" />
        </mxCell>
        <mxCell id="8mjYLHvnkvFiz-2dnYs0-47" style="edgeStyle=orthogonalEdgeStyle;rounded=0;orthogonalLoop=1;jettySize=auto;html=1;exitX=0.5;exitY=1;exitDx=0;exitDy=0;" edge="1" parent="1" source="8mjYLHvnkvFiz-2dnYs0-39" target="8mjYLHvnkvFiz-2dnYs0-40">
          <mxGeometry relative="1" as="geometry" />
        </mxCell>
        <mxCell id="8mjYLHvnkvFiz-2dnYs0-39" value="Tambah Buku" style="rounded=0;whiteSpace=wrap;html=1;" vertex="1" parent="1">
          <mxGeometry x="60" y="520" width="120" height="60" as="geometry" />
        </mxCell>
        <mxCell id="8mjYLHvnkvFiz-2dnYs0-48" style="edgeStyle=orthogonalEdgeStyle;rounded=0;orthogonalLoop=1;jettySize=auto;html=1;exitX=0.5;exitY=1;exitDx=0;exitDy=0;" edge="1" parent="1" source="8mjYLHvnkvFiz-2dnYs0-40" target="8mjYLHvnkvFiz-2dnYs0-45">
          <mxGeometry relative="1" as="geometry" />
        </mxCell>
        <mxCell id="8mjYLHvnkvFiz-2dnYs0-40" value="Masukkan ID&lt;div&gt;Masukkan Judul&lt;/div&gt;&lt;div&gt;Masukkan Penulis&lt;/div&gt;" style="shape=parallelogram;perimeter=parallelogramPerimeter;whiteSpace=wrap;html=1;fixedSize=1;" vertex="1" parent="1">
          <mxGeometry x="60" y="620" width="120" height="60" as="geometry" />
        </mxCell>
        <mxCell id="8mjYLHvnkvFiz-2dnYs0-41" value="Tampilkan&lt;div&gt;Daftar Buku&lt;/div&gt;" style="shape=parallelogram;perimeter=parallelogramPerimeter;whiteSpace=wrap;html=1;fixedSize=1;" vertex="1" parent="1">
          <mxGeometry x="240" y="620" width="120" height="60" as="geometry" />
        </mxCell>
        <mxCell id="8mjYLHvnkvFiz-2dnYs0-53" style="edgeStyle=orthogonalEdgeStyle;rounded=0;orthogonalLoop=1;jettySize=auto;html=1;exitX=0.5;exitY=1;exitDx=0;exitDy=0;" edge="1" parent="1" source="8mjYLHvnkvFiz-2dnYs0-42" target="8mjYLHvnkvFiz-2dnYs0-44">
          <mxGeometry relative="1" as="geometry" />
        </mxCell>
        <mxCell id="8mjYLHvnkvFiz-2dnYs0-42" value="Masukkan ID Buku yang akan Dihapus" style="shape=parallelogram;perimeter=parallelogramPerimeter;whiteSpace=wrap;html=1;fixedSize=1;" vertex="1" parent="1">
          <mxGeometry x="410" y="620" width="120" height="60" as="geometry" />
        </mxCell>
        <mxCell id="8mjYLHvnkvFiz-2dnYs0-58" style="edgeStyle=orthogonalEdgeStyle;rounded=0;orthogonalLoop=1;jettySize=auto;html=1;exitX=0.5;exitY=1;exitDx=0;exitDy=0;" edge="1" parent="1" source="8mjYLHvnkvFiz-2dnYs0-44" target="8mjYLHvnkvFiz-2dnYs0-54">
          <mxGeometry relative="1" as="geometry" />
        </mxCell>
        <mxCell id="8mjYLHvnkvFiz-2dnYs0-44" value="Buku Dihapus" style="rounded=0;whiteSpace=wrap;html=1;" vertex="1" parent="1">
          <mxGeometry x="410" y="720" width="120" height="60" as="geometry" />
        </mxCell>
        <mxCell id="8mjYLHvnkvFiz-2dnYs0-57" style="edgeStyle=orthogonalEdgeStyle;rounded=0;orthogonalLoop=1;jettySize=auto;html=1;exitX=0.5;exitY=1;exitDx=0;exitDy=0;" edge="1" parent="1" source="8mjYLHvnkvFiz-2dnYs0-45" target="8mjYLHvnkvFiz-2dnYs0-54">
          <mxGeometry relative="1" as="geometry" />
        </mxCell>
        <mxCell id="8mjYLHvnkvFiz-2dnYs0-45" value="Buku Ditambahkan" style="rounded=0;whiteSpace=wrap;html=1;" vertex="1" parent="1">
          <mxGeometry x="60" y="720" width="120" height="60" as="geometry" />
        </mxCell>
        <mxCell id="8mjYLHvnkvFiz-2dnYs0-60" style="edgeStyle=orthogonalEdgeStyle;rounded=0;orthogonalLoop=1;jettySize=auto;html=1;exitX=0.5;exitY=1;exitDx=0;exitDy=0;" edge="1" parent="1" source="8mjYLHvnkvFiz-2dnYs0-54" target="8mjYLHvnkvFiz-2dnYs0-59">
          <mxGeometry relative="1" as="geometry" />
        </mxCell>
        <mxCell id="8mjYLHvnkvFiz-2dnYs0-54" value="Tampilkan Menu" style="rounded=0;whiteSpace=wrap;html=1;" vertex="1" parent="1">
          <mxGeometry x="320" y="900" width="120" height="60" as="geometry" />
        </mxCell>
        <mxCell id="8mjYLHvnkvFiz-2dnYs0-59" value="Program Berakhir" style="rounded=1;whiteSpace=wrap;html=1;" vertex="1" parent="1">
          <mxGeometry x="320" y="1000" width="120" height="60" as="geometry" />
        </mxCell>
      </root>
    </mxGraphModel>
  </diagram>
</mxfile>
